<?xml version="1.0" encoding="iso-8859-1"?>
<!-- Generator: Adobe Illustrator 16.0.0, SVG Export Plug-In . SVG Version: 6.00 Build 0)  -->
<!DOCTYPE svg PUBLIC "-//W3C//DTD SVG 1.1//EN" "http://www.w3.org/Graphics/SVG/1.1/DTD/svg11.dtd">
<svg version="1.1" id="Capa_1" xmlns="http://www.w3.org/2000/svg" xmlns:xlink="http://www.w3.org/1999/xlink" x="0px" y="0px"
	 width="60px" height="90px" viewBox="0 0 122.649 122.648" style="enable-background:new 0 0 122.649 122.648;"
	 xml:space="preserve">
<g>
	<g>
		<path d="M93.27,18.911c-0.736-0.186-1.478-0.172-2.164,0.006l10.305-18.58h-4.745L83.711,23.695h3.827
			c-2.429,9.212-5.593,17.907-7.179,19.65c-2.199,1.267-9.038,3.018-14.219,4.102c-0.857-0.454-1.762-0.812-2.684-1.063
			c4.703-1.358,8.146-5.687,8.146-10.828c0-6.226-5.049-11.272-11.277-11.272c-6.227,0-11.275,5.047-11.275,11.272
			c0,5.134,3.432,9.458,8.124,10.823c-0.96,0.263-1.904,0.64-2.792,1.123c-5.08-1.056-12.147-2.852-14.429-4.127
			c-1.465-1.893-3.803-10.887-5.115-19.68h4.42l1.183-4.378h7.588l1.151,4.378h5.657h1.245h5.896l4.506-7.301l4.553,7.301h7.302
			L70.383,12.24l7.397-11.903h-7.206l-4.059,7.222l-4.217-7.222h-6.999l7.286,11.408l-6.924,10.676L48.367,0.24h-8.42l-6.63,20.407
			c-0.928-0.805-2.186-1.219-3.499-1.029c-1.088,0.159-2.021,0.71-2.685,1.483V5.498h5.687V0.337H15.118v5.161h5.704v18.197h5.258
			c-0.018,0.29-0.005,0.588,0.039,0.887c1.493,10.261,4.261,23.112,8.96,26.076c2.887,1.821,9.087,3.505,13.752,4.591
			c-0.027,0.276-0.044,0.559-0.044,0.847v24.888c0,1.123,0.201,2.175,0.566,3.145l-14.65,9.963
			c-1.773,1.209-2.619,3.381-2.126,5.469l4.511,19.102c0.563,2.38,2.686,3.986,5.031,3.986c0.394-0.002,0.793-0.047,1.193-0.141
			c2.78-0.656,4.503-3.443,3.847-6.226l-3.693-15.636l14.579-9.914c0.748,0.132,1.513,0.201,2.284,0.201
			c0.209,0,0.417-0.017,0.624-0.027c0.508,5.753,1.269,14.238,1.519,16.52c0.229,2.082,0.764,6.955,19.82,12.121
			c0.454,0.122,0.909,0.182,1.357,0.182c2.277,0,4.365-1.516,4.99-3.82c0.746-2.757-0.883-5.598-3.641-6.346
			c-4.939-1.342-10.354-3.396-12.384-4.656c-0.463-4.74-1.524-16.833-1.78-19.748c0.657-1.24,1.036-2.641,1.036-4.173v-24.89
			c0-0.319-0.019-0.63-0.049-0.939c4.614-1.087,10.558-2.728,13.364-4.498c4.513-2.846,8.613-15.945,11.261-26.432
			C97.035,21.882,95.615,19.503,93.27,18.911z M43.631,6.776c0.281-1.247,0.471-2.143,0.566-2.686
			c0.106,0.588,0.328,1.557,0.663,2.909c0.336,1.354,0.621,2.455,0.855,3.308l1.006,3.833h-4.969
			C42.722,10.475,43.347,8.022,43.631,6.776z M60.326,46.835c0.888,0,1.75-0.114,2.579-0.31l-2.578,2.596l-2.438-2.559
			C58.675,46.736,59.489,46.835,60.326,46.835z"/>
		<path d="M105.885,11.264c-1.098-1.309-2.578-1.964-4.441-1.964c-1.885,0-3.35,0.63-4.395,1.892
			c-1.043,1.265-1.565,3.066-1.565,5.409c0,2.246,0.536,4.034,1.606,5.359c1.069,1.326,2.521,1.989,4.353,1.989
			c1.938,0,3.438-0.642,4.497-1.925c1.06-1.284,1.591-3.091,1.591-5.424C107.532,14.355,106.983,12.575,105.885,11.264z
			 M102.457,19.197c-0.175,0.622-0.491,0.936-0.95,0.936c-0.404,0-0.707-0.272-0.91-0.815s-0.304-1.427-0.304-2.652
			c0-1.202,0.099-2.082,0.296-2.635c0.197-0.555,0.504-0.833,0.918-0.833c0.459,0,0.775,0.313,0.95,0.936
			c0.177,0.622,0.265,1.467,0.265,2.532C102.721,17.731,102.633,18.575,102.457,19.197z"/>
		<path d="M79.324,12.678c1.071,1.326,2.522,1.989,4.354,1.989c1.948,0,3.451-0.642,4.504-1.925
			c1.056-1.283,1.582-3.097,1.582-5.439c0-2.248-0.549-4.026-1.646-5.337C87.02,0.655,85.542,0,83.678,0
			c-1.886,0-3.351,0.632-4.395,1.895c-1.043,1.262-1.564,3.063-1.564,5.408C77.719,9.561,78.254,11.353,79.324,12.678z
			 M82.824,4.731c0.196-0.556,0.503-0.832,0.918-0.832c0.405,0,0.706,0.272,0.903,0.816c0.197,0.541,0.295,1.426,0.295,2.651
			c0,1.247-0.1,2.136-0.295,2.668c-0.197,0.533-0.498,0.8-0.903,0.8s-0.708-0.272-0.91-0.815s-0.305-1.427-0.305-2.652
			C82.527,6.163,82.625,5.286,82.824,4.731z"/>
	</g>
</g>
<g>
</g>
<g>
</g>
<g>
</g>
<g>
</g>
<g>
</g>
<g>
</g>
<g>
</g>
<g>
</g>
<g>
</g>
<g>
</g>
<g>
</g>
<g>
</g>
<g>
</g>
<g>
</g>
<g>
</g>
</svg>
